<?xml version="1.0" standalone="no"?>
<!DOCTYPE svg PUBLIC "-//W3C//DTD SVG 20010904//EN"
 "http://www.w3.org/TR/2001/REC-SVG-20010904/DTD/svg10.dtd">
<svg version="1.0" xmlns="http://www.w3.org/2000/svg"
 width="1084.000000pt" height="1084.000000pt" viewBox="0 0 1084.000000 1084.000000"
 preserveAspectRatio="xMidYMid meet">
<metadata>
Created by potrace 1.14, written by Peter Selinger 2001-2017
</metadata>
<g transform="translate(0.000000,1084.000000) scale(0.100000,-0.100000)"
fill="#000000" stroke="none">
<path d="M5218 9295 c-2 -1 -46 -5 -98 -9 -114 -7 -191 -16 -260 -31 -14 -3
-38 -7 -55 -10 -16 -2 -44 -8 -62 -14 -17 -5 -34 -7 -37 -3 -3 3 -6 1 -6 -5 0
-6 -6 -10 -12 -10 -14 1 -127 -32 -143 -41 -5 -4 -16 -7 -23 -8 -20 -3 -206
-96 -220 -111 -7 -7 -17 -13 -21 -13 -7 0 -57 -36 -144 -102 -39 -30 -157
-147 -157 -156 0 -4 -9 -14 -20 -22 -11 -8 -20 -19 -20 -24 0 -5 -8 -16 -18
-25 -22 -20 -120 -178 -152 -246 -33 -71 -81 -187 -85 -205 -2 -8 -13 -44 -24
-80 -12 -36 -23 -76 -26 -88 -3 -12 -7 -32 -11 -44 -3 -13 -7 -32 -9 -43 -3
-11 -7 -31 -11 -45 -3 -14 -7 -34 -9 -45 -2 -11 -6 -33 -9 -50 -3 -16 -8 -48
-11 -70 -3 -22 -9 -53 -12 -70 -3 -16 -7 -43 -8 -60 -1 -16 -6 -70 -11 -120
-11 -113 -12 -3181 -1 -3290 5 -44 10 -91 12 -105 2 -14 7 -47 10 -75 8 -59
11 -84 24 -150 5 -27 7 -53 5 -57 -3 -5 -1 -8 3 -8 5 0 10 -13 11 -30 1 -16
14 -71 28 -122 14 -51 27 -100 29 -108 2 -8 4 -15 5 -15 1 0 3 -7 5 -15 6 -29
58 -166 86 -228 16 -34 28 -65 28 -68 0 -4 3 -10 8 -13 4 -3 17 -22 27 -41 11
-19 35 -59 55 -89 20 -30 41 -61 46 -70 63 -97 305 -312 403 -359 17 -9 32
-19 32 -24 0 -4 5 -8 11 -8 6 0 41 -14 78 -31 36 -17 75 -34 86 -39 34 -16
177 -61 225 -71 25 -5 55 -11 68 -14 79 -17 197 -34 287 -41 122 -9 380 -11
391 -2 8 6 19 -3 34 -27 12 -19 26 -35 31 -35 5 0 9 -6 9 -14 0 -7 12 -29 28
-48 15 -20 45 -61 67 -93 22 -31 46 -63 53 -70 6 -8 12 -18 12 -24 0 -6 4 -11
8 -11 5 0 17 -16 28 -35 10 -19 21 -35 25 -35 3 0 23 -24 43 -54 21 -30 49
-67 62 -83 14 -15 39 -47 56 -70 17 -24 35 -43 40 -43 4 0 8 -5 8 -11 0 -6 12
-23 28 -39 15 -15 50 -53 77 -85 68 -79 199 -210 270 -270 32 -27 63 -55 69
-60 6 -6 27 -22 46 -35 19 -13 37 -27 40 -30 3 -3 19 -14 35 -25 86 -56 144
-87 154 -80 5 2 11 19 14 37 3 18 7 43 10 54 3 12 8 39 11 60 4 22 8 46 11 54
4 15 10 42 20 98 3 15 8 38 11 52 3 14 8 39 11 55 2 17 8 46 13 65 5 19 12 51
15 70 3 19 10 53 15 75 23 103 23 101 -22 137 -24 18 -72 61 -108 95 -36 35
-68 63 -72 63 -5 0 -8 6 -8 14 0 8 -9 18 -21 21 -11 4 -19 9 -16 11 2 2 -19
28 -47 57 -28 29 -73 79 -101 112 -27 32 -57 66 -65 75 -8 9 -42 49 -75 90
-32 41 -63 77 -67 78 -4 2 -8 10 -8 17 0 7 -7 15 -15 19 -8 3 -15 10 -15 16 0
6 5 8 10 5 6 -3 10 -1 10 4 0 6 9 11 20 11 11 0 20 5 20 10 0 6 7 10 16 10 17
0 157 79 162 92 2 4 8 8 14 8 35 0 308 257 308 290 0 5 4 10 8 10 4 0 16 13
25 30 10 16 23 35 30 42 17 19 47 69 54 91 3 9 9 17 14 17 5 0 9 9 9 19 0 11
3 21 8 23 4 1 24 39 44 83 53 116 67 153 60 159 -3 3 0 6 6 6 7 0 11 3 10 8
-1 4 5 30 14 57 8 28 19 64 23 80 5 17 9 35 11 40 23 82 67 318 79 425 3 30 8
71 10 90 3 19 7 84 11 145 3 60 7 112 10 114 2 2 -1 10 -7 18 -6 7 -8 13 -3
13 12 0 11 173 -1 182 -7 5 -6 8 1 8 11 0 12 59 1 77 -4 6 -3 13 1 17 11 12 9
190 -3 198 -6 5 -6 8 0 8 12 0 13 149 2 168 -5 6 -4 12 1 12 10 0 8 62 -2 78
-3 6 -3 13 2 16 10 6 9 187 -1 204 -5 6 -4 12 0 12 12 0 10 154 -2 162 -7 5
-7 8 0 8 12 0 13 119 1 138 -4 6 -3 12 1 12 12 0 10 154 -2 162 -7 5 -6 8 1 8
11 0 12 59 1 77 -4 6 -3 13 1 17 11 12 9 190 -3 198 -6 5 -6 8 0 8 12 0 13
149 2 168 -5 6 -4 12 1 12 10 0 8 62 -2 78 -3 6 -3 13 2 16 10 6 9 187 -1 204
-5 6 -4 12 0 12 12 0 10 154 -2 162 -7 5 -7 8 0 8 13 0 13 110 0 110 -6 0 -6
3 0 8 14 9 13 115 0 124 -7 5 -7 8 0 8 11 0 13 95 2 106 -3 4 -2 14 3 24 5 10
7 20 4 23 -3 3 -7 45 -10 94 -2 48 -6 106 -8 128 -3 22 -7 63 -10 90 -6 51
-24 170 -32 215 -3 14 -8 41 -11 60 -3 19 -10 43 -15 53 -5 10 -7 21 -4 24 3
3 1 13 -3 22 -5 9 -12 34 -15 55 -4 22 -11 45 -17 52 -5 6 -9 16 -8 20 1 5 0
16 -4 24 -3 8 -15 44 -27 80 -12 36 -33 89 -46 118 -13 29 -24 55 -24 57 0 2
-14 27 -30 56 -17 28 -32 56 -33 63 -1 6 -5 13 -8 16 -3 3 -25 34 -49 69 -23
35 -52 76 -64 90 -29 35 -164 170 -204 204 -107 90 -353 225 -442 241 -3 1
-18 6 -35 13 -16 6 -39 15 -50 19 -11 4 -24 6 -29 5 -4 -1 -31 5 -60 12 -62
18 -150 34 -231 42 -33 4 -73 9 -90 12 -32 5 -421 13 -427 8z m390 -743 c23
-5 42 -7 42 -4 0 2 7 -1 15 -8 8 -7 15 -10 15 -7 0 10 102 -24 166 -54 34 -17
76 -43 95 -59 72 -64 109 -99 109 -106 0 -4 8 -17 19 -28 39 -44 103 -183 121
-266 5 -19 11 -46 15 -60 3 -14 8 -36 10 -50 2 -14 6 -43 10 -65 7 -40 9 -54
23 -180 15 -146 8 -3600 -8 -3600 -2 0 -7 -45 -12 -107 -2 -21 -7 -38 -11 -38
-5 0 -5 -4 -2 -10 3 -5 1 -27 -4 -47 -6 -21 -13 -53 -16 -72 -3 -19 -10 -42
-16 -52 -5 -11 -7 -19 -4 -19 4 0 3 -6 -2 -12 -4 -7 -8 -18 -9 -24 -6 -40
-104 -213 -126 -222 -4 -2 -8 -8 -8 -12 0 -9 -78 -90 -86 -90 -3 0 -14 -8 -25
-19 -40 -37 -183 -97 -280 -117 -64 -13 -147 -18 -279 -17 -194 1 -230 5 -355
43 -281 86 -447 322 -501 715 -1 11 -3 20 -4 20 -3 0 -13 121 -14 167 -1 27
-4 48 -7 48 -9 0 -7 3372 2 3398 5 14 5 22 -2 22 -6 0 -7 5 -4 10 4 6 8 30 11
53 2 23 6 60 9 82 3 22 7 54 9 70 3 24 14 86 21 115 1 3 5 23 10 45 4 22 10
45 14 50 3 6 7 19 8 30 2 11 24 62 49 113 37 76 61 109 123 170 74 73 209 160
225 145 3 -4 6 -2 6 4 0 5 6 10 13 10 6 0 32 6 57 13 55 15 64 17 131 25 30 4
55 8 57 10 8 7 350 -4 390 -13z"/>
</g>
</svg>
